<?xml version="1.0" standalone="no"?>
<!DOCTYPE svg PUBLIC "-//W3C//DTD SVG 20010904//EN"
 "http://www.w3.org/TR/2001/REC-SVG-20010904/DTD/svg10.dtd">
<svg version="1.0" xmlns="http://www.w3.org/2000/svg"
 width="1280.000000pt" height="960.000000pt" viewBox="0 0 1280.000000 960.000000"
 preserveAspectRatio="xMidYMid meet">
<metadata>
Created by potrace 1.15, written by Peter Selinger 2001-2017
</metadata>
<g transform="translate(0.000000,960.000000) scale(0.100000,-0.100000)"
fill="#000000" stroke="none">
<path d="M7067 8199 c-25 -14 -65 -98 -82 -171 -8 -35 -18 -124 -21 -198 -4
-83 -11 -141 -19 -150 -29 -35 -46 -219 -46 -500 l-1 -218 -52 -7 c-168 -21
-317 -90 -437 -202 -86 -81 -127 -150 -154 -258 -64 -259 -40 -507 78 -775 71
-164 152 -240 326 -306 126 -49 173 -77 205 -122 22 -32 26 -49 26 -104 0 -37
-3 -73 -6 -82 -7 -19 -78 -22 -135 -5 -33 10 -47 9 -101 -11 -35 -13 -97 -42
-138 -65 -113 -64 -304 -105 -547 -115 -100 -4 -186 -11 -191 -14 -10 -6 -18
-39 -29 -108 -4 -31 2 -50 31 -103 39 -71 135 -323 160 -419 9 -32 21 -98 27
-145 13 -96 21 -111 55 -111 14 0 24 -6 24 -13 0 -8 14 -33 31 -56 50 -70 51
-79 7 -134 -125 -158 -188 -362 -175 -565 11 -168 51 -287 110 -322 40 -25
130 -26 269 -4 55 9 102 14 104 11 3 -3 8 -69 11 -148 4 -105 1 -178 -12 -269
-28 -208 -30 -276 -11 -306 17 -25 16 -28 -42 -157 -96 -210 -114 -282 -132
-512 -13 -168 -39 -302 -87 -448 -21 -67 -33 -122 -30 -140 3 -22 -8 -56 -37
-116 -36 -76 -40 -95 -41 -159 0 -61 3 -76 19 -87 47 -35 281 -58 486 -48 141
6 146 7 172 34 25 24 28 35 28 91 0 49 -6 76 -26 117 -37 73 -84 102 -177 111
-76 7 -193 52 -182 69 3 6 -4 61 -16 123 -35 183 -28 245 81 673 50 198 95
363 98 367 4 3 20 8 37 10 21 2 34 11 44 32 12 26 11 48 -8 180 -17 122 -21
198 -21 394 0 222 1 243 18 249 58 20 184 85 224 116 l48 37 11 -23 c7 -12 54
-88 106 -169 185 -291 229 -397 242 -577 10 -132 19 -161 61 -200 l31 -28 -20
-109 c-23 -131 -38 -285 -46 -494 -7 -173 -23 -280 -62 -415 -14 -49 -27 -112
-28 -140 -2 -27 -10 -74 -19 -104 -21 -70 -21 -189 -1 -218 12 -17 29 -22 97
-27 46 -4 166 -14 267 -22 119 -10 247 -14 365 -11 245 6 276 20 276 123 0 91
-67 165 -160 180 -25 4 -56 16 -70 26 -22 18 -35 19 -106 13 -67 -5 -99 -2
-195 20 -63 14 -135 30 -161 36 -36 8 -48 15 -48 29 0 10 -14 61 -32 112 -47
139 -49 259 -9 534 17 116 36 268 42 338 11 119 13 126 34 126 11 0 29 6 40
13 32 24 13 82 -115 342 -67 138 -151 324 -187 415 -36 91 -90 213 -121 272
l-55 107 30 34 c36 41 69 124 79 197 4 28 10 48 14 43 16 -17 49 -141 53 -201
5 -56 18 -92 36 -92 45 1 57 115 29 280 -39 230 -52 288 -77 365 -23 67 -25
84 -14 91 7 5 22 58 33 119 11 61 42 178 69 260 27 83 57 185 66 228 12 53 23
80 34 84 52 19 68 76 31 113 -24 24 -26 57 -5 96 20 39 19 73 -4 110 -27 45
-95 66 -203 63 -46 -2 -89 1 -96 5 -7 4 -12 20 -12 35 0 66 123 171 223 190
34 7 87 20 118 30 77 25 261 135 329 198 107 99 142 239 87 349 -29 60 -28 83
6 154 15 30 29 74 33 97 4 30 11 43 23 43 9 1 30 7 46 14 29 13 29 13 -17 8
-58 -6 -65 13 -9 22 59 9 57 21 -2 19 l-52 -2 44 14 c25 8 50 20 55 26 8 7 3
7 -17 0 -48 -19 -64 -11 -19 9 23 11 42 22 42 25 0 3 -9 1 -19 -5 -11 -5 -30
-10 -43 -9 -19 1 -17 3 9 10 32 9 46 22 49 47 2 10 -3 9 -21 -2 -35 -23 -42
-20 -47 21 -4 31 2 48 34 97 51 79 51 115 1 166 -24 23 -62 46 -101 60 -78 29
-110 63 -104 113 4 32 33 66 236 271 127 129 275 269 329 312 55 43 103 88
108 101 10 26 147 130 258 195 188 111 376 157 636 158 103 0 147 12 153 42 6
29 -26 48 -83 48 -86 0 -281 -28 -390 -57 -193 -50 -348 -133 -524 -280 -51
-43 -91 -69 -101 -66 -19 5 -149 -106 -265 -228 -97 -102 -309 -339 -350 -392
-31 -40 -98 -77 -140 -77 -12 0 -67 18 -121 39 -102 41 -215 63 -397 77 -74 6
-87 9 -83 23 2 9 7 102 11 206 3 105 13 235 22 290 9 55 17 134 19 175 3 78
27 255 45 325 18 72 41 113 80 145 43 35 48 49 21 73 -21 19 -49 21 -75 6z
m838 -1859 c-3 -5 -11 -10 -16 -10 -6 0 -7 5 -4 10 3 6 11 10 16 10 6 0 7 -4
4 -10z m-1263 -1480 c5 -14 20 -73 33 -132 13 -59 31 -120 39 -135 11 -22 12
-41 4 -88 -5 -33 -7 -87 -4 -120 7 -81 7 -83 -1 -140 -8 -50 -40 -122 -50
-112 -3 3 2 16 11 29 9 12 16 26 16 30 0 18 -35 38 -66 38 -29 0 -43 -9 -89
-57 -61 -66 -105 -85 -245 -103 -46 -6 -88 -14 -92 -16 -16 -10 -28 7 -19 25
8 14 1 30 -31 72 -52 70 -80 126 -138 278 -26 69 -64 165 -84 214 -20 48 -36
91 -36 95 0 15 198 63 344 84 77 11 178 30 225 42 47 12 106 21 130 21 37 0
45 -4 53 -25z"/>
</g>
</svg>
