<svg id="edt30p7Kxz61" xmlns="http://www.w3.org/2000/svg" xmlns:xlink="http://www.w3.org/1999/xlink" viewBox="0 0 600 600" shape-rendering="geometricPrecision" text-rendering="geometricPrecision"><line x1="-300" y1="0" x2="300" y2="0" transform="translate(300 0)" fill="none" stroke="#3f5787" stroke-width="3"/><line x1="-300" y1="0" x2="300" y2="0" transform="matrix(0-1 1 0 580.773968 94)" fill="none" stroke="#3f5787" stroke-width="3"/><line x1="-300" y1="0" x2="300" y2="0" transform="matrix(0-1 1 0 580.773968 280)" fill="none" stroke="#3f5787" stroke-width="3"/><line x1="-300" y1="0" x2="300" y2="0" transform="matrix(0-1 1 0 94.657844 196.5)" fill="none" stroke="#3f5787" stroke-width="3"/><line x1="-300" y1="0" x2="300" y2="0" transform="matrix(0-1 1 0 128.183094 212.5)" fill="none" stroke="#3f5787" stroke-width="3"/><line x1="-300" y1="0" x2="300" y2="0" transform="matrix(0-1 1 0 159.613016 249.5)" fill="none" stroke="#3f5787" stroke-width="3"/><line x1="-300" y1="0" x2="300" y2="0" transform="matrix(0-1 1 0 193.138266 227.5)" fill="none" stroke="#3f5787" stroke-width="3"/><line x1="-300" y1="0" x2="300" y2="0" transform="matrix(0-1 1 0 241.330813 269.5)" fill="none" stroke="#3f5787" stroke-width="3"/><line x1="-300" y1="0" x2="300" y2="0" transform="matrix(0-1 1 0 522.104782 290.5)" fill="none" stroke="#3f5787" stroke-width="3"/><line x1="-300" y1="0" x2="300" y2="0" transform="matrix(0-1 1 0 522.104782 251.5)" fill="none" stroke="#3f5787" stroke-width="3"/><line x1="-300" y1="0" x2="300" y2="0" transform="matrix(0-1 1 0 522.104782 272.5)" fill="none" stroke="#3f5787" stroke-width="3"/><line x1="-300" y1="0" x2="300" y2="0" transform="matrix(0-1 1 0 496.960844 260)" fill="none" stroke="#3f5787" stroke-width="3"/><line x1="-300" y1="0" x2="300" y2="0" transform="matrix(0-1 1 0 496.960844 281)" fill="none" stroke="#3f5787" stroke-width="3"/><line x1="-300" y1="0" x2="300" y2="0" transform="matrix(0-1 1 0 547.248719 272.5)" fill="none" stroke="#3f5787" stroke-width="3"/><line x1="-300" y1="0" x2="300" y2="0" transform="matrix(0-1 1 0 547.248719 293.5)" fill="none" stroke="#3f5787" stroke-width="3"/><line x1="-300" y1="0" x2="300" y2="0" transform="matrix(0-1 1 0 520.009454 260)" fill="none" stroke="#3f5787" stroke-width="3"/><line x1="-300" y1="0" x2="300" y2="0" transform="matrix(0-1 1 0 520.009454 281)" fill="none" stroke="#3f5787" stroke-width="3"/><line x1="-300" y1="0" x2="300" y2="0" transform="matrix(0-1 1 0 241.330813 284.5)" fill="none" stroke="#3f5787" stroke-width="3"/><line x1="-300" y1="0" x2="300" y2="0" transform="matrix(0-1 1 0 241.330813 230.5)" fill="none" stroke="#3f5787" stroke-width="3"/><line x1="-300" y1="0" x2="300" y2="0" transform="matrix(0-1 1 0 241.330813 251.5)" fill="none" stroke="#3f5787" stroke-width="3"/><line x1="-300" y1="0" x2="300" y2="0" transform="matrix(0-1 1 0 193.138266 242.5)" fill="none" stroke="#3f5787" stroke-width="3"/><line x1="-300" y1="0" x2="300" y2="0" transform="matrix(0-1 1 0 193.138266 262.5)" fill="none" stroke="#3f5787" stroke-width="3"/><line x1="-300" y1="0" x2="300" y2="0" transform="matrix(0-1 1 0 193.138266 282.5)" fill="none" stroke="#3f5787" stroke-width="3"/><line x1="-300" y1="0" x2="300" y2="0" transform="matrix(0-1 1 0 193.138266 188.5)" fill="none" stroke="#3f5787" stroke-width="3"/><line x1="-300" y1="0" x2="300" y2="0" transform="matrix(0-1 1 0 193.138266 209.5)" fill="none" stroke="#3f5787" stroke-width="3"/><line x1="-300" y1="0" x2="300" y2="0" transform="matrix(0-1 1 0 159.613016 264.5)" fill="none" stroke="#3f5787" stroke-width="3"/><line x1="-300" y1="0" x2="300" y2="0" transform="matrix(0-1 1 0 159.613016 284.5)" fill="none" stroke="#3f5787" stroke-width="3"/><line x1="-300" y1="0" x2="300" y2="0" transform="matrix(0-1 1 0 159.613016 210.5)" fill="none" stroke="#3f5787" stroke-width="3"/><line x1="-300" y1="0" x2="300" y2="0" transform="matrix(0-1 1 0 159.613016 231.5)" fill="none" stroke="#3f5787" stroke-width="3"/><line x1="-300" y1="0" x2="300" y2="0" transform="matrix(0-1 1 0 128.183094 227.5)" fill="none" stroke="#3f5787" stroke-width="3"/><line x1="-300" y1="0" x2="300" y2="0" transform="matrix(0-1 1 0 128.183094 247.5)" fill="none" stroke="#3f5787" stroke-width="3"/><line x1="-300" y1="0" x2="300" y2="0" transform="matrix(0-1 1 0 128.183094 267.5)" fill="none" stroke="#3f5787" stroke-width="3"/><line x1="-300" y1="0" x2="300" y2="0" transform="matrix(0-1 1 0 128.183094 288.5)" fill="none" stroke="#3f5787" stroke-width="3"/><line x1="-300" y1="0" x2="300" y2="0" transform="matrix(0-1 1 0 128.183094 173.5)" fill="none" stroke="#3f5787" stroke-width="3"/><line x1="-300" y1="0" x2="300" y2="0" transform="matrix(0-1 1 0 128.183094 194.5)" fill="none" stroke="#3f5787" stroke-width="3"/><line x1="-300" y1="0" x2="300" y2="0" transform="matrix(0-1 1 0 467.62625 296)" fill="none" stroke="#3f5787" stroke-width="3"/><line x1="-300" y1="0" x2="300" y2="0" transform="matrix(0-1 1 0 406.861735 214.5)" fill="none" stroke="#3f5787" stroke-width="3"/><line x1="-300" y1="0" x2="300" y2="0" transform="matrix(0-1 1 0 27.607344 204)" fill="none" stroke="#3f5787" stroke-width="3"/><line x1="-300" y1="0" x2="300" y2="0" transform="matrix(0-1 1 0 50.655954 184)" fill="none" stroke="#3f5787" stroke-width="3"/><line x1="-300" y1="0" x2="300" y2="0" transform="matrix(0-1 1 0 94.657844 196.5)" fill="none" stroke="#3f5787" stroke-width="3"/><line x1="-300" y1="0" x2="300" y2="0" transform="matrix(0-1 1 0 94.657844 211.5)" fill="none" stroke="#3f5787" stroke-width="3"/><line x1="-300" y1="0" x2="300" y2="0" transform="matrix(0-1 1 0 94.657844 231.5)" fill="none" stroke="#3f5787" stroke-width="3"/><line x1="-300" y1="0" x2="300" y2="0" transform="matrix(0-1 1 0 94.657844 251.5)" fill="none" stroke="#3f5787" stroke-width="3"/><line x1="-300" y1="0" x2="300" y2="0" transform="matrix(0-1 1 0 94.657844 272.5)" fill="none" stroke="#3f5787" stroke-width="3"/><line x1="-300" y1="0" x2="300" y2="0" transform="matrix(0-1 1 0 94.657844 290.5)" fill="none" stroke="#3f5787" stroke-width="3"/><line x1="-300" y1="0" x2="300" y2="0" transform="matrix(0-1 1 0 94.657844 157.5)" fill="none" stroke="#3f5787" stroke-width="3"/><line x1="-300" y1="0" x2="300" y2="0" transform="matrix(0-1 1 0 94.657844 178.5)" fill="none" stroke="#3f5787" stroke-width="3"/><line x1="-300" y1="0" x2="300" y2="0" transform="matrix(0-1 1 0 50.655954 199)" fill="none" stroke="#3f5787" stroke-width="3"/><line x1="-300" y1="0" x2="300" y2="0" transform="matrix(0-1 1 0 50.655954 219)" fill="none" stroke="#3f5787" stroke-width="3"/><line x1="-300" y1="0" x2="300" y2="0" transform="matrix(0-1 1 0 50.655954 239)" fill="none" stroke="#3f5787" stroke-width="3"/><line x1="-300" y1="0" x2="300" y2="0" transform="matrix(0-1 1 0 50.655954 260)" fill="none" stroke="#3f5787" stroke-width="3"/><line x1="-300" y1="0" x2="300" y2="0" transform="matrix(0-1 1 0 50.655954 278)" fill="none" stroke="#3f5787" stroke-width="3"/><line x1="-300" y1="0" x2="300" y2="0" transform="matrix(0-1 1 0 50.655954 293)" fill="none" stroke="#3f5787" stroke-width="3"/><line x1="-300" y1="0" x2="300" y2="0" transform="matrix(0-1 1 0 50.655954 145)" fill="none" stroke="#3f5787" stroke-width="3"/><line x1="-300" y1="0" x2="300" y2="0" transform="matrix(0-1 1 0 50.655954 166)" fill="none" stroke="#3f5787" stroke-width="3"/><line x1="-300" y1="0" x2="300" y2="0" transform="matrix(0-1 1 0 27.607344 219)" fill="none" stroke="#3f5787" stroke-width="3"/><line x1="-300" y1="0" x2="300" y2="0" transform="matrix(0-1 1 0 27.607344 239)" fill="none" stroke="#3f5787" stroke-width="3"/><line x1="-300" y1="0" x2="300" y2="0" transform="matrix(0-1 1 0 27.607344 259)" fill="none" stroke="#3f5787" stroke-width="3"/><line x1="-300" y1="0" x2="300" y2="0" transform="matrix(0-1 1 0 27.607344 280)" fill="none" stroke="#3f5787" stroke-width="3"/><line x1="-300" y1="0" x2="300" y2="0" transform="matrix(0-1 1 0 27.607344 165)" fill="none" stroke="#3f5787" stroke-width="3"/><line x1="-300" y1="0" x2="300" y2="0" transform="matrix(0-1 1 0 27.607344 186)" fill="none" stroke="#3f5787" stroke-width="3"/><line x1="-300" y1="0" x2="300" y2="0" transform="matrix(0-1 1 0 367.050501 264)" fill="none" stroke="#3f5787" stroke-width="3"/><line x1="-300" y1="0" x2="300" y2="0" transform="matrix(0-1 1 0 367.050501 285)" fill="none" stroke="#3f5787" stroke-width="3"/><line x1="-300" y1="0" x2="300" y2="0" transform="matrix(0-1 1 0 406.861735 229.5)" fill="none" stroke="#3f5787" stroke-width="3"/><line x1="-300" y1="0" x2="300" y2="0" transform="matrix(0-1 1 0 406.861735 249.5)" fill="none" stroke="#3f5787" stroke-width="3"/><line x1="-300" y1="0" x2="300" y2="0" transform="matrix(0-1 1 0 406.861735 269.5)" fill="none" stroke="#3f5787" stroke-width="3"/><line x1="-300" y1="0" x2="300" y2="0" transform="matrix(0-1 1 0 406.861735 290.5)" fill="none" stroke="#3f5787" stroke-width="3"/><line x1="-300" y1="0" x2="300" y2="0" transform="matrix(0-1 1 0 406.861735 175.5)" fill="none" stroke="#3f5787" stroke-width="3"/><line x1="-300" y1="0" x2="300" y2="0" transform="matrix(0-1 1 0 406.861735 196.5)" fill="none" stroke="#3f5787" stroke-width="3"/><line x1="-300" y1="0" x2="300" y2="0" transform="matrix(0-1 1 0 467.62625 257)" fill="none" stroke="#3f5787" stroke-width="3"/><line x1="-300" y1="0" x2="300" y2="0" transform="matrix(0-1 1 0 467.62625 278)" fill="none" stroke="#3f5787" stroke-width="3"/><line x1="-300" y1="0" x2="300" y2="0" transform="matrix(0-1 1 0 94.657844 211.5)" fill="none" stroke="#3f5787" stroke-width="3"/><line x1="-300" y1="0" x2="300" y2="0" transform="matrix(0-1 1 0 94.657844 231.5)" fill="none" stroke="#3f5787" stroke-width="3"/><line x1="-300" y1="0" x2="300" y2="0" transform="matrix(0-1 1 0 94.657844 251.5)" fill="none" stroke="#3f5787" stroke-width="3"/><line x1="-300" y1="0" x2="300" y2="0" transform="matrix(0-1 1 0 94.657844 272.5)" fill="none" stroke="#3f5787" stroke-width="3"/><line x1="-300" y1="0" x2="300" y2="0" transform="matrix(0-1 1 0 94.657844 290.5)" fill="none" stroke="#3f5787" stroke-width="3"/><line x1="-300" y1="0" x2="300" y2="0" transform="matrix(0-1 1 0 94.657844 157.5)" fill="none" stroke="#3f5787" stroke-width="3"/><line x1="-300" y1="0" x2="300" y2="0" transform="matrix(0-1 1 0 94.657844 178.5)" fill="none" stroke="#3f5787" stroke-width="3"/><line x1="-300" y1="0" x2="300" y2="0" transform="matrix(0-1 1 0 580.773968 295)" fill="none" stroke="#3f5787" stroke-width="3"/><line x1="-300" y1="0" x2="300" y2="0" transform="matrix(0-1 1 0 300 262)" fill="none" stroke="#3f5787" stroke-width="3"/><line x1="-300" y1="0" x2="300" y2="0" transform="matrix(0-1 1 0 300 280)" fill="none" stroke="#3f5787" stroke-width="3"/><line x1="-300" y1="0" x2="300" y2="0" transform="matrix(0-1 1 0 300 295)" fill="none" stroke="#3f5787" stroke-width="3"/><line x1="-300" y1="0" x2="300" y2="0" transform="matrix(0-1 1 0 580.773968 188)" fill="none" stroke="#3f5787" stroke-width="3"/><line x1="-300" y1="0" x2="300" y2="0" transform="matrix(0-1 1 0 580.773968 203)" fill="none" stroke="#3f5787" stroke-width="3"/><line x1="-300" y1="0" x2="300" y2="0" transform="matrix(0-1 1 0 580.773968 223)" fill="none" stroke="#3f5787" stroke-width="3"/><line x1="-300" y1="0" x2="300" y2="0" transform="matrix(0-1 1 0 580.773968 243)" fill="none" stroke="#3f5787" stroke-width="3"/><line x1="-300" y1="0" x2="300" y2="0" transform="matrix(0-1 1 0 580.773968 264)" fill="none" stroke="#3f5787" stroke-width="3"/><line x1="-300" y1="0" x2="300" y2="0" transform="matrix(0-1 1 0 580.773968 109)" fill="none" stroke="#3f5787" stroke-width="3"/><line x1="-300" y1="0" x2="300" y2="0" transform="matrix(0-1 1 0 580.773968 129)" fill="none" stroke="#3f5787" stroke-width="3"/><line x1="-300" y1="0" x2="300" y2="0" transform="matrix(0-1 1 0 580.773968 149)" fill="none" stroke="#3f5787" stroke-width="3"/><line x1="-300" y1="0" x2="300" y2="0" transform="matrix(0-1 1 0 580.773968 170)" fill="none" stroke="#3f5787" stroke-width="3"/><line x1="-300" y1="0" x2="300" y2="0" transform="translate(300 186)" fill="none" stroke="#3f5787" stroke-width="3"/><line x1="-300" y1="0" x2="300" y2="0" transform="translate(300 372)" fill="none" stroke="#3f5787" stroke-width="3"/><line x1="-300" y1="0" x2="300" y2="0" transform="translate(300 560)" fill="none" stroke="#3f5787" stroke-width="3"/><line x1="-300" y1="0" x2="300" y2="0" transform="translate(300 575)" fill="none" stroke="#3f5787" stroke-width="3"/><line x1="-300" y1="0" x2="300" y2="0" transform="translate(300 595)" fill="none" stroke="#3f5787" stroke-width="3"/><line x1="-300" y1="0" x2="300" y2="0" transform="translate(300 387)" fill="none" stroke="#3f5787" stroke-width="3"/><line x1="-300" y1="0" x2="300" y2="0" transform="translate(300 407)" fill="none" stroke="#3f5787" stroke-width="3"/><line x1="-300" y1="0" x2="300" y2="0" transform="translate(300 427)" fill="none" stroke="#3f5787" stroke-width="3"/><line x1="-300" y1="0" x2="300" y2="0" transform="translate(300 448)" fill="none" stroke="#3f5787" stroke-width="3"/><line x1="-300" y1="0" x2="300" y2="0" transform="translate(300 466)" fill="none" stroke="#3f5787" stroke-width="3"/><line x1="-300" y1="0" x2="300" y2="0" transform="translate(300 481)" fill="none" stroke="#3f5787" stroke-width="3"/><line x1="-300" y1="0" x2="300" y2="0" transform="translate(300 501)" fill="none" stroke="#3f5787" stroke-width="3"/><line x1="-300" y1="0" x2="300" y2="0" transform="translate(300 521)" fill="none" stroke="#3f5787" stroke-width="3"/><line x1="-300" y1="0" x2="300" y2="0" transform="translate(300 542)" fill="none" stroke="#3f5787" stroke-width="3"/><line x1="-300" y1="0" x2="300" y2="0" transform="translate(300 201)" fill="none" stroke="#3f5787" stroke-width="3"/><line x1="-300" y1="0" x2="300" y2="0" transform="translate(300 221)" fill="none" stroke="#3f5787" stroke-width="3"/><line x1="-300" y1="0" x2="300" y2="0" transform="translate(300 241)" fill="none" stroke="#3f5787" stroke-width="3"/><line x1="-300" y1="0" x2="300" y2="0" transform="translate(300 262)" fill="none" stroke="#3f5787" stroke-width="3"/><line x1="-300" y1="0" x2="300" y2="0" transform="translate(300 280)" fill="none" stroke="#3f5787" stroke-width="3"/><line x1="-300" y1="0" x2="300" y2="0" transform="translate(300 295)" fill="none" stroke="#3f5787" stroke-width="3"/><line x1="-300" y1="0" x2="300" y2="0" transform="translate(300 315)" fill="none" stroke="#3f5787" stroke-width="3"/><line x1="-300" y1="0" x2="300" y2="0" transform="translate(300 335)" fill="none" stroke="#3f5787" stroke-width="3"/><line x1="-300" y1="0" x2="300" y2="0" transform="translate(300 356)" fill="none" stroke="#3f5787" stroke-width="3"/><line x1="-300" y1="0" x2="300" y2="0" transform="translate(300 94)" fill="none" stroke="#3f5787" stroke-width="3"/><line x1="-300" y1="0" x2="300" y2="0" transform="translate(300 109)" fill="none" stroke="#3f5787" stroke-width="3"/><line x1="-300" y1="0" x2="300" y2="0" transform="translate(300 129)" fill="none" stroke="#3f5787" stroke-width="3"/><line x1="-300" y1="0" x2="300" y2="0" transform="translate(300 149)" fill="none" stroke="#3f5787" stroke-width="3"/><line x1="-300" y1="0" x2="300" y2="0" transform="translate(300 170)" fill="none" stroke="#3f5787" stroke-width="3"/><line x1="-300" y1="0" x2="300" y2="0" transform="translate(300 15)" fill="none" stroke="#3f5787" stroke-width="3"/><line x1="-300" y1="0" x2="300" y2="0" transform="translate(300 35)" fill="none" stroke="#3f5787" stroke-width="3"/><line x1="-300" y1="0" x2="300" y2="0" transform="translate(300 55)" fill="none" stroke="#3f5787" stroke-width="3"/><line x1="-300" y1="0" x2="300" y2="0" transform="translate(300 76)" fill="none" stroke="#3f5787" stroke-width="3"/><line x1="-300" y1="0" x2="300" y2="0" transform="matrix(0-1 1 0 520.009454 260)" fill="none" stroke="#3f5787" stroke-width="3"/><line x1="-300" y1="0" x2="300" y2="0" transform="matrix(0-1 1 0 520.009454 281)" fill="none" stroke="#3f5787" stroke-width="3"/><line x1="-300" y1="0" x2="300" y2="0" transform="matrix(0-1 1 0 440.386985 267.5)" fill="none" stroke="#3f5787" stroke-width="3"/><line x1="-300" y1="0" x2="300" y2="0" transform="matrix(0-1 1 0 440.386985 288.5)" fill="none" stroke="#3f5787" stroke-width="3"/><line x1="-300" y1="0" x2="300" y2="0" transform="matrix(0-1 1 0 329.334594 262)" fill="none" stroke="#3f5787" stroke-width="3"/><line x1="-300" y1="0" x2="300" y2="0" transform="matrix(0-1 1 0 266.474751 286.5)" fill="none" stroke="#3f5787" stroke-width="3"/><line x1="-300" y1="0" x2="300" y2="0" transform="matrix(0-1 1 0 266.474751 247.5)" fill="none" stroke="#3f5787" stroke-width="3"/><line x1="-300" y1="0" x2="300" y2="0" transform="matrix(0-1 1 0 266.474751 268.5)" fill="none" stroke="#3f5787" stroke-width="3"/><line x1="-300" y1="0" x2="300" y2="0" transform="matrix(0-1 1 0 329.334594 277)" fill="none" stroke="#3f5787" stroke-width="3"/><line x1="-300" y1="0" x2="300" y2="0" transform="matrix(0-1 1 0 329.334594 223)" fill="none" stroke="#3f5787" stroke-width="3"/><line x1="-300" y1="0" x2="300" y2="0" transform="matrix(0-1 1 0 329.334594 244)" fill="none" stroke="#3f5787" stroke-width="3"/></svg>
